<svg xmlns="http://www.w3.org/2000/svg" xmlns:xlink="http://www.w3.org/1999/xlink" viewBox="0 0 247.11 247.04"><defs><style>.cls-1{fill:url(#Fading_Sky);}.cls-2{fill:url(#radial-gradient);}.cls-3{fill:url(#linear-gradient);}.cls-4{fill:url(#linear-gradient-2);}.cls-5{fill:url(#linear-gradient-3);}.cls-6{fill:url(#linear-gradient-4);}.cls-7{fill:url(#linear-gradient-5);}</style><linearGradient id="Fading_Sky" x1="68.89" y1="106.61" x2="247.11" y2="106.61" gradientUnits="userSpaceOnUse"><stop offset="0" stop-color="#2484c6"/><stop offset="1" stop-color="#2484c6" stop-opacity="0"/></linearGradient><radialGradient id="radial-gradient" cx="89.11" cy="140.44" r="98.24" gradientUnits="userSpaceOnUse"><stop offset="0" stop-color="#fff"/><stop offset="0.52" stop-color="#a7a9ac"/><stop offset="0.61" stop-color="#9fa1a4"/><stop offset="0.76" stop-color="#8a8b8e"/><stop offset="0.94" stop-color="#66686a"/><stop offset="1" stop-color="#58595b"/></radialGradient><linearGradient id="linear-gradient" x1="350.15" y1="-132.57" x2="117.93" y2="138.04" gradientUnits="userSpaceOnUse"><stop offset="0" stop-color="#2484c6"/><stop offset="1" stop-color="#0061af" stop-opacity="0.6"/></linearGradient><linearGradient id="linear-gradient-2" x1="281.12" y1="-77.76" x2="-34.58" y2="307.23" gradientUnits="userSpaceOnUse"><stop offset="0" stop-color="#fff"/><stop offset="0.38" stop-color="#bcbec0"/><stop offset="0.48" stop-color="#929294"/><stop offset="0.6" stop-color="#6a696b"/><stop offset="0.71" stop-color="#4b494a"/><stop offset="0.81" stop-color="#353233"/><stop offset="0.91" stop-color="#282425"/><stop offset="1" stop-color="#231f20"/></linearGradient><linearGradient id="linear-gradient-3" x1="137.32" y1="175.91" x2="181.59" y2="-39.04" gradientUnits="userSpaceOnUse"><stop offset="0" stop-color="#2484c6"/><stop offset="1" stop-color="#fff"/></linearGradient><linearGradient id="linear-gradient-4" x1="143.29" y1="182.56" x2="143.29" y2="0.34" xlink:href="#linear-gradient-2"/><linearGradient id="linear-gradient-5" x1="11.74" y1="126.61" x2="46.39" y2="9.84" xlink:href="#linear-gradient-2"/></defs><title>BP-LOGO-ICONE</title><g id="Layer_2" data-name="Layer 2"><g id="Layer_1-2" data-name="Layer 1"><path class="cls-1" d="M147.85,2.39a124.16,124.16,0,0,0-79,10.31V123.53c0,36.28,35,62.63,69.84,52.49V142.49c-16.16,12.88-39.49,1.08-39.49-19V33.79c75.5-20.44,141,56,109.31,127.47v52C281.85,142.35,244.56,21.71,147.85,2.39Z"/><path class="cls-2" d="M108.37,71v33.54c16-12.85,39.48-1.14,39.48,19v89.75C72,233.79,7.09,157,38.54,85.81v-52c-50.46,47.76-51.49,128-2.38,177.07,35.57,36.35,93.57,47.31,142.05,23.44V123.51C178.15,87.25,143.32,60.94,108.37,71Z"/><path class="cls-3" d="M211.68,161.91C242.87,90,179.21,8.91,96.12,31.4v92.12c0,20.58,21.8,33.47,39.49,24.66v25.45C103.24,181.5,72,156.84,72,123.53V14.66c65.38-30.84,145.6,2,167,74.91,12.16,41.41,1.92,84.23-27.35,116Z"/><path class="cls-4" d="M38.38,208.74a120.46,120.46,0,0,1-3-167.32V85.15C4.08,157.31,68.19,238.06,151,215.66V123.52c0-20.36-21.63-33.55-39.49-24.64V73.43C144,65.58,175,90.32,175.09,123.52V232.4C128.26,254.51,72.66,243.77,38.38,208.74Z"/><path class="cls-5" d="M135.61,158v-9.8c-17.69,8.81-39.49-4.08-39.49-24.66V31.4C179.21,8.91,242.87,90,211.68,161.91v4.84c8.1.24,16.23.25,24.34,0a119.07,119.07,0,0,0,3-77.21C217.61,16.63,137.39-16.18,72,14.66c0,118.15-1.16,115.6,3.48,127.55A521.35,521.35,0,0,0,135.61,158Z"/><path class="cls-6" d="M151,123.52v37.25q12,2,24.11,3.35v-40.6C175,90.32,144,65.58,111.49,73.43V98.88C129.35,90,151,103.16,151,123.52Z"/><path class="cls-7" d="M27.32,123.94a96.26,96.26,0,0,1,8.09-38.79V41.42A119.75,119.75,0,0,0,3.57,112.78Q15.3,118.67,27.32,123.94Z"/></g></g></svg>