<svg xmlns="http://www.w3.org/2000/svg" xmlns:xlink="http://www.w3.org/1999/xlink" viewBox="0 0 744.51 392.37"><defs><style>.cls-1{fill:url(#Fading_Sky);}.cls-2{fill:url(#radial-gradient);}.cls-3{fill:url(#linear-gradient);}.cls-4{fill:url(#linear-gradient-2);}.cls-5{fill:url(#linear-gradient-3);}.cls-6{fill:url(#linear-gradient-4);}.cls-7{fill:url(#linear-gradient-5);}.cls-8{font-size:86.29px;font-family:OpenSans-Bold, Open Sans;font-weight:700;letter-spacing:-0.03em;}.cls-8,.cls-9{fill:#fff;}.cls-9{font-size:35.34px;font-family:OpenSans-Semibold, Open Sans;font-weight:600;letter-spacing:0.08em;}</style><linearGradient id="Fading_Sky" x1="317.59" y1="106.61" x2="495.81" y2="106.61" gradientUnits="userSpaceOnUse"><stop offset="0" stop-color="#2484c6"/><stop offset="1" stop-color="#2484c6" stop-opacity="0"/></linearGradient><radialGradient id="radial-gradient" cx="337.81" cy="140.44" r="98.24" gradientUnits="userSpaceOnUse"><stop offset="0" stop-color="#fff"/><stop offset="0.52" stop-color="#a7a9ac"/><stop offset="0.61" stop-color="#9fa1a4"/><stop offset="0.76" stop-color="#8a8b8e"/><stop offset="0.94" stop-color="#66686a"/><stop offset="1" stop-color="#58595b"/></radialGradient><linearGradient id="linear-gradient" x1="598.85" y1="-132.57" x2="366.64" y2="138.04" gradientUnits="userSpaceOnUse"><stop offset="0" stop-color="#2484c6"/><stop offset="1" stop-color="#0061af" stop-opacity="0.6"/></linearGradient><linearGradient id="linear-gradient-2" x1="529.82" y1="-77.76" x2="214.12" y2="307.23" gradientUnits="userSpaceOnUse"><stop offset="0" stop-color="#fff"/><stop offset="0.38" stop-color="#bcbec0"/><stop offset="0.48" stop-color="#929294"/><stop offset="0.6" stop-color="#6a696b"/><stop offset="0.71" stop-color="#4b494a"/><stop offset="0.81" stop-color="#353233"/><stop offset="0.91" stop-color="#282425"/><stop offset="1" stop-color="#231f20"/></linearGradient><linearGradient id="linear-gradient-3" x1="386.02" y1="175.91" x2="430.3" y2="-39.04" gradientUnits="userSpaceOnUse"><stop offset="0" stop-color="#2484c6"/><stop offset="1" stop-color="#fff"/></linearGradient><linearGradient id="linear-gradient-4" x1="391.99" y1="182.56" x2="391.99" y2="0.34" xlink:href="#linear-gradient-2"/><linearGradient id="linear-gradient-5" x1="260.45" y1="126.61" x2="295.1" y2="9.84" xlink:href="#linear-gradient-2"/></defs><title>BP-LOGO-SVG-WHITE</title><g id="Layer_2" data-name="Layer 2"><g id="Layer_1-2" data-name="Layer 1"><path class="cls-1" d="M396.56,2.39a124.19,124.19,0,0,0-79,10.31V123.53c0,36.28,35,62.63,69.85,52.49V142.49c-16.16,12.88-39.5,1.08-39.5-19V33.79c75.51-20.44,141,56,109.31,127.47v52C530.56,142.35,493.27,21.71,396.56,2.39Z"/><path class="cls-2" d="M357.08,71v33.54c16-12.85,39.48-1.14,39.48,19v89.75C320.73,233.79,255.79,157,287.24,85.81v-52c-50.46,47.76-51.48,128-2.38,177.07,35.57,36.35,93.58,47.31,142.06,23.44V123.51C426.85,87.25,392,60.94,357.08,71Z"/><path class="cls-3" d="M460.38,161.91C491.57,90,427.91,8.91,344.82,31.4v92.12c0,20.58,21.81,33.47,39.5,24.66v25.45c-32.38,7.87-63.6-16.79-63.6-50.1V14.66c65.37-30.84,145.59,2,167,74.91,12.16,41.41,1.92,84.23-27.35,116Z"/><path class="cls-4" d="M287.09,208.74a120.46,120.46,0,0,1-3-167.32V85.15c-31.33,72.16,32.78,152.91,115.57,130.51V123.52c0-20.36-21.62-33.55-39.48-24.64V73.43c32.48-7.85,63.54,16.89,63.59,50.09V232.4C377,254.51,321.36,243.77,287.09,208.74Z"/><path class="cls-5" d="M384.32,158v-9.8c-17.69,8.81-39.5-4.08-39.5-24.66V31.4C427.91,8.91,491.57,90,460.38,161.91v4.84q12.15.36,24.35,0a119.07,119.07,0,0,0,3-77.21c-21.42-72.94-101.64-105.75-167-74.91,0,118.15-1.17,115.6,3.47,127.55A521,521,0,0,0,384.32,158Z"/><path class="cls-6" d="M399.68,123.52v37.25q12,2,24.11,3.35v-40.6c-.05-33.2-31.11-57.94-63.59-50.09V98.88C378.06,90,399.68,103.16,399.68,123.52Z"/><path class="cls-7" d="M276,123.94a96.24,96.24,0,0,1,8.08-38.79V41.42a119.81,119.81,0,0,0-31.84,71.36Q264,118.67,276,123.94Z"/><text class="cls-8" transform="translate(0 330.26)">Banque du Peuple</text><text class="cls-9" transform="translate(232.93 382.4)">Vous d’abord !</text></g></g></svg>